<?xml version="1.0" standalone="no"?>
<!DOCTYPE svg PUBLIC "-//W3C//DTD SVG 20010904//EN" "http://www.w3.org/TR/2001/REC-SVG-20010904/DTD/svg10.dtd">
<svg version="1.0" xmlns="http://www.w3.org/2000/svg" width="1200.000000pt" height="1200.000000pt"
    viewBox="0 0 1200.000000 1200.000000" preserveAspectRatio="xMidYMid meet">

    <g transform="translate(0.000000,1200.000000) scale(0.100000,-0.100000)" fill="#ffffff" stroke="none">
        <path d="M3773 7875 c-275 -50 -673 -261 -1028 -546 -641 -515 -1164 -1225
-1277 -1733 -28 -127 -22 -278 13 -356 161 -351 803 -187 1516 387 l105 84 68
-35 c218 -115 456 -80 631 94 113 112 166 246 156 400 -6 106 -30 177 -84 258
l-42 63 88 132 c533 795 467 1363 -146 1252z m243 -194 c62 -28 78 -70 72
-190 -10 -195 -136 -484 -341 -783 -33 -49 -65 -88 -70 -88 -6 0 -38 11 -72
25 -217 86 -488 -2 -621 -202 -106 -160 -122 -353 -43 -525 18 -37 30 -70 28
-72 -399 -332 -804 -556 -1078 -597 -130 -18 -205 3 -236 67 -23 49 -19 165 9
275 145 566 844 1399 1536 1829 360 223 676 325 816 261z m-509 -1171 c82 -18
82 -21 24 -92 -87 -103 -340 -375 -386 -413 l-43 -35 -15 38 c-36 90 -30 217
15 307 79 155 237 231 405 195z m251 -217 c36 -77 37 -208 4 -293 -66 -169
-261 -267 -432 -217 -113 33 -115 26 57 199 83 84 193 201 244 261 51 59 94
107 96 107 2 0 16 -26 31 -57z" />
        <path d="M7164 6566 c-66 -16 -133 -55 -174 -103 -75 -85 -116 -240 -106 -398
7 -110 24 -174 66 -254 39 -73 93 -124 169 -160 49 -23 68 -26 161 -26 95 0
111 3 167 29 151 69 227 215 228 436 0 162 -30 265 -106 361 -83 105 -250 152
-405 115z m187 -156 c53 -15 114 -85 136 -157 23 -76 22 -238 -2 -308 -38
-112 -92 -157 -196 -163 -60 -4 -74 -1 -113 22 -70 41 -107 117 -120 246 -6
70 10 189 34 243 20 46 71 100 110 116 33 13 106 13 151 1z" />
        <path d="M5310 6365 l0 -135 -50 0 -50 0 0 -65 0 -65 50 0 50 0 0 -240 0 -240
80 0 80 0 0 240 0 240 80 0 80 0 0 65 0 65 -80 0 -80 0 0 135 0 135 -80 0 -80
0 0 -135z" />
        <path d="M8800 6365 l0 -135 -50 0 -50 0 0 -65 0 -65 50 0 50 0 0 -240 0 -240
80 0 80 0 0 240 0 240 80 0 80 0 0 65 0 65 -80 0 -80 0 0 135 0 135 -80 0 -80
0 0 -135z" />
        <path d="M6269 6250 c-53 -9 -113 -38 -158 -75 l-31 -27 0 24 c-1 62 -7 68
-81 68 l-69 0 0 -455 0 -455 80 0 80 0 0 181 0 181 35 -26 c57 -44 116 -59
208 -54 131 7 219 65 271 177 33 71 30 217 -5 291 -14 30 -38 69 -53 87 -54
63 -176 100 -277 83z m84 -144 c108 -45 148 -196 78 -293 -82 -114 -264 -104
-326 18 -19 36 -20 151 -1 187 44 84 161 125 249 88z" />
        <path d="M8072 6225 c-69 -35 -102 -89 -102 -166 0 -94 50 -146 181 -188 107
-35 139 -86 83 -130 -46 -36 -134 -22 -210 34 -21 15 -23 14 -53 -27 l-32 -43
35 -31 c95 -83 295 -86 380 -6 62 58 83 155 47 222 -24 46 -65 73 -160 105
-86 28 -111 48 -111 88 0 58 100 77 176 33 l41 -23 26 42 c15 23 27 46 27 52
0 5 -21 20 -47 33 -37 18 -69 24 -138 27 -82 4 -95 2 -143 -22z" />
        <path d="M4290 5998 c0 -130 5 -250 10 -270 24 -84 93 -130 195 -129 78 0 140
27 189 81 32 36 35 37 40 17 3 -12 6 -34 6 -49 l0 -28 75 0 75 0 0 305 0 305
-79 0 -79 0 -4 -172 c-4 -136 -8 -182 -22 -215 -35 -84 -121 -130 -187 -102
-52 21 -59 53 -59 284 l0 205 -80 0 -80 0 0 -232z" />
    </g>
</svg>